<svg xmlns="http://www.w3.org/2000/svg" width="1024" height="1024"
     viewBox="0 0 1024 1024" role="img" aria-label="Trust Halal">
  <!-- GENERATED by brand-assets/generate_icons.py — do not hand-edit.
       Eight-point star (rub-el-hizb proportion) with a verification
       check knocked out of it. -->
  <defs>
    <mask id="knock" maskUnits="userSpaceOnUse" x="0" y="0" width="1024" height="1024">
      <path d="M 614.6 264.4 L 646.0 378.0 L 759.6 409.4 L 701.5 512.0 L 759.6 614.6 L 646.0 646.0 L 614.6 759.6 L 512.0 701.5 L 409.4 759.6 L 378.0 646.0 L 264.4 614.6 L 322.5 512.0 L 264.4 409.4 L 378.0 378.0 L 409.4 264.4 L 512.0 322.5 Z" fill="#fff" stroke="#fff" stroke-width="8.9" stroke-linejoin="round"/>
      <path d="M 400 522 L 476 598 L 640 424" fill="none" stroke="#000" stroke-width="82"
            stroke-linecap="round" stroke-linejoin="round"
            transform="translate(512,512) scale(0.7403) translate(-512,-512)"/>
    </mask>
  </defs>
  <path d="M 614.6 264.4 L 646.0 378.0 L 759.6 409.4 L 701.5 512.0 L 759.6 614.6 L 646.0 646.0 L 614.6 759.6 L 512.0 701.5 L 409.4 759.6 L 378.0 646.0 L 264.4 614.6 L 322.5 512.0 L 264.4 409.4 L 378.0 378.0 L 409.4 264.4 L 512.0 322.5 Z" fill="#F6F2E9" stroke="#F6F2E9" stroke-width="8.9" stroke-linejoin="round" mask="url(#knock)"/>
</svg>
