<svg xmlns="http://www.w3.org/2000/svg" width="1024" height="1024"
     viewBox="0 0 1024 1024" role="img" aria-label="Trust Halal">
  <!-- GENERATED by brand-assets/generate_icons.py — do not hand-edit.
       Eight-point star (rub-el-hizb proportion) with a verification
       check knocked out of it. -->
  <defs>
    <mask id="knock" maskUnits="userSpaceOnUse" x="0" y="0" width="1024" height="1024">
      <path d="M 650.5 177.6 L 693.0 331.0 L 846.4 373.5 L 768.0 512.0 L 846.4 650.5 L 693.0 693.0 L 650.5 846.4 L 512.0 768.0 L 373.5 846.4 L 331.0 693.0 L 177.6 650.5 L 256.0 512.0 L 177.6 373.5 L 331.0 331.0 L 373.5 177.6 L 512.0 256.0 Z" fill="#fff" stroke="#fff" stroke-width="12.0" stroke-linejoin="round"/>
      <path d="M 400 522 L 476 598 L 640 424" fill="none" stroke="#000" stroke-width="82"
            stroke-linecap="round" stroke-linejoin="round"
            transform="translate(512,512) scale(1.0000) translate(-512,-512)"/>
    </mask>
  </defs>
  <path d="M 650.5 177.6 L 693.0 331.0 L 846.4 373.5 L 768.0 512.0 L 846.4 650.5 L 693.0 693.0 L 650.5 846.4 L 512.0 768.0 L 373.5 846.4 L 331.0 693.0 L 177.6 650.5 L 256.0 512.0 L 177.6 373.5 L 331.0 331.0 L 373.5 177.6 L 512.0 256.0 Z" fill="#FFFFFF" stroke="#FFFFFF" stroke-width="12.0" stroke-linejoin="round" mask="url(#knock)"/>
</svg>
